<?xml version="1.0" encoding="UTF-8" standalone="no"?>
<svg
   xmlns:dc="http://purl.org/dc/elements/1.1/"
   xmlns:cc="http://creativecommons.org/ns#"
   xmlns:rdf="http://www.w3.org/1999/02/22-rdf-syntax-ns#"
   xmlns:svg="http://www.w3.org/2000/svg"
   xmlns="http://www.w3.org/2000/svg"
   viewBox="0 0 434.53732 369.07867"
   height="369.07867"
   width="434.53732"
   xml:space="preserve"
   id="svg2"
   version="1.1"><metadata
     id="metadata8"><rdf:RDF><cc:Work
         rdf:about=""><dc:format>image/svg+xml</dc:format><dc:type
           rdf:resource="http://purl.org/dc/dcmitype/StillImage" /></cc:Work></rdf:RDF></metadata><defs
     id="defs6"><clipPath
       id="clipPath18"
       clipPathUnits="userSpaceOnUse"><path
         id="path16"
         d="m 110.713,262.735 c -2.373,-7.848 -4.938,-15.639 -7.557,-23.409 v 0 C 98.713,226.145 94.175,212.999 88.93,200.102 v 0 c -5.151,-12.662 -17.564,-0.469 -23.162,7.72 v 0 c -8.278,12.107 -25.821,13.924 -39.478,8.147 v 0 C 14.472,210.971 8.216,201.307 6.085,187.941 v 0 c -2.7,-16.932 7.802,-38.527 29.877,-41.713 v 0 c 5.55,-0.8 11.213,-1.315 16.662,-2.872 v 0 c 6.705,-3.432 7.281,-5.451 3.488,-11.835 v 0 C 49.197,119.881 41.865,107.89 34.523,96.261 v 0 c -2.116,-3.35 -1.739,-5.179 1.642,-7.354 v 0 C 50.17,79.898 77.929,61.492 77.929,61.492 v 0 c 0,0 6.215,-3.467 9.743,-4.256 v 0 c 18.068,-4.048 13.656,26.696 17.29,36.288 v 0 c 5.127,13.537 20.067,25.911 38.628,17.554 v 0 c 22.464,-10.114 24.583,-31.546 9.82,-49.019 v 0 c -3.863,-4.57 -8.56,-8.369 -12.281,-13.071 v 0 c -5.043,-6.37 -3.719,-12.851 3.374,-16.829 v 0 c 17.781,-9.97 38.354,-15.388 57.2,-23.001 v 0 c 3.034,-1.226 7.315,-4.106 10.748,-3.37 v 0 c 3.373,0.724 4.519,3.412 5.315,6.269 v 0 c 2.985,10.721 5.892,21.463 8.852,32.19 v 0 c 2.698,9.782 4.747,20.314 8.729,29.673 v 0 c 2.516,5.912 5.148,7.735 10.861,3.452 v 0 c 3.303,-2.477 6.413,-5.209 9.611,-7.827 v 0 c 12.029,-10.702 25.468,-15.139 40.979,-8.503 v 0 c 13.625,5.831 24.113,18.402 23.401,33.948 v 0 c -0.09,13.922 -7.301,23.772 -18.349,31.116 v 0 c -5.179,3.442 -11.403,3.951 -17.427,4.415 v 0 c -4.599,0.352 -10.985,-0.622 -15.058,2.536 v 0 c -4.782,3.709 -2.183,9.856 0.708,14.031 v 0 c 6.897,9.965 13.527,20.102 20.071,30.301 v 0 c 2.58,4.021 2.308,6.224 -1.627,9.038 v 0 c -4.869,3.479 -9.768,6.916 -14.729,10.26 v 0 c -10.256,6.912 -20.361,14.068 -31.218,20.038 v 0 c -6.172,3.393 -11.599,1.734 -14.713,-4.608 v 0 c -2.466,-5.023 -2.174,-10.653 -3.041,-16.025 v 0 c -0.671,-4.159 -0.391,-8.468 -1.761,-12.51 v 0 c -3.301,-9.734 -10.416,-15.26 -20.05,-17.998 v 0 c -17.849,-5.074 -33.383,5.49 -37.337,19.836 v 0 c -2.971,10.784 -1.774,20.471 6.913,28.526 v 0 c 4.89,4.534 10.915,9.951 14.386,15.672 v 0 c 3.923,6.465 2.397,12.504 -4.233,16.007 v 0 c -7.112,3.759 -14.643,6.573 -22.071,9.6 v 0 c -11.9,4.848 -23.896,9.456 -35.806,14.278 v 0 c -2.642,1.07 -4.776,1.637 -6.539,1.637 v 0 c -3.768,0 -5.848,-2.59 -7.605,-8.405" /></clipPath></defs><g
     transform="matrix(1.3333333,0,0,-1.3333333,0,369.07867)"
     id="g10"><g
       id="g12"><g
         clip-path="url(#clipPath18)"
         id="g14"><g
           transform="translate(320.1994,94.9901)"
           id="g20"><path
             id="path22"
             style="fill:#2d3d56;fill-opacity:1;fill-rule:nonzero;stroke:none"
             d="m 0,0 c -0.09,13.922 -7.302,23.772 -18.35,31.116 -5.178,3.442 -11.402,3.951 -17.426,4.414 -4.599,0.354 -10.986,-0.621 -15.058,2.536 -4.782,3.709 -2.184,9.856 0.707,14.032 6.898,9.965 13.527,20.103 20.071,30.301 2.58,4.021 2.309,6.224 -1.627,9.038 -4.868,3.479 -9.767,6.916 -14.728,10.26 -10.257,6.912 -20.361,14.068 -31.219,20.038 -6.171,3.393 -11.599,1.734 -14.712,-4.609 -2.466,-5.022 -2.175,-10.652 -3.041,-16.024 -0.672,-4.159 -0.391,-8.468 -1.762,-12.51 -3.3,-9.735 -10.416,-15.26 -20.049,-17.998 -17.849,-5.073 -33.383,5.49 -37.337,19.836 -2.972,10.783 -1.775,20.471 6.913,28.526 4.889,4.534 10.914,9.951 14.386,15.672 3.922,6.465 2.396,12.504 -4.233,16.007 -7.112,3.759 -14.643,6.573 -22.072,9.6 -11.9,4.848 -23.896,9.456 -35.806,14.278 -8.288,3.356 -11.564,1.768 -14.144,-6.768 -2.372,-7.848 -4.937,-15.64 -7.556,-23.409 -4.444,-13.181 -8.981,-26.328 -14.227,-39.224 -5.15,-12.662 -17.563,-0.469 -23.162,7.72 -8.277,12.107 -25.82,13.924 -39.477,8.147 -11.818,-4.999 -18.074,-14.663 -20.205,-28.028 -2.7,-16.932 7.802,-38.527 29.877,-41.712 5.55,-0.801 11.213,-1.316 16.661,-2.873 6.705,-3.432 7.281,-5.451 3.489,-11.835 -6.916,-11.64 -14.247,-23.631 -21.59,-35.26 -2.115,-3.35 -1.738,-5.179 1.642,-7.354 14.005,-9.009 41.765,-27.415 41.765,-27.415 0,0 6.214,-3.467 9.743,-4.257 18.068,-4.047 13.655,26.697 17.289,36.289 5.127,13.537 20.067,25.91 38.629,17.554 22.464,-10.114 24.583,-31.546 9.819,-49.019 -3.862,-4.57 -8.56,-8.369 -12.281,-13.071 -5.042,-6.37 -3.719,-12.852 3.374,-16.829 17.782,-9.971 38.354,-15.388 57.2,-23.001 3.035,-1.227 7.315,-4.106 10.749,-3.37 3.373,0.723 4.519,3.412 5.314,6.269 2.986,10.721 5.893,21.462 8.853,32.19 2.698,9.782 4.746,20.313 8.728,29.673 2.516,5.912 5.149,7.735 10.861,3.452 3.304,-2.477 6.414,-5.209 9.611,-7.827 12.029,-10.702 25.469,-15.139 40.98,-8.502 C -9.776,-28.117 0.712,-15.546 0,0" /></g><g
           transform="translate(323.4651,95.3797)"
           id="g24"><path
             id="path26"
             style="fill:#77caf1;fill-opacity:1;fill-rule:nonzero;stroke:none"
             d="m 0,0 c 0.061,12.337 -6.119,23.603 -18.404,31.595 -9.197,5.982 -22.548,3.197 -32.741,6.643 -3.171,1.073 -4.353,3.208 -3.72,6.419 0.208,1.058 0.833,2.051 0.598,3.185 -1.514,-2.167 -12.631,-8.949 -14.601,-10.128 -8.947,-5.354 -18.407,-7.632 -28.528,-3.841 -9.618,3.604 -16.071,12.014 -25.442,16.06 -9.999,4.317 -20.349,5.488 -30.945,3.093 -10.764,-2.432 -17.703,-8.874 -26.304,-14.999 -8.208,-5.844 -19.324,-7.579 -28.88,-4.048 -7.859,2.903 -14.099,8.827 -21.287,13.081 -13.93,8.243 -32.359,9.707 -46.556,1.912 2.554,-1.181 5.444,-2.796 5.795,-5.539 0.228,-1.778 -0.724,-3.474 -1.648,-5.021 -7.28,-12.198 -14.807,-24.256 -22.572,-36.165 -1.276,-1.956 -2.579,-4.476 -1.331,-6.451 0.472,-0.747 1.241,-1.259 1.986,-1.748 14.843,-9.742 50.092,-33.031 65.396,-42.064 4.866,-2.871 90.112,-33.084 111.12,-40.851 2.191,-0.811 4.315,-2.267 6.892,-1.726 3.501,0.735 4.69,3.465 5.516,6.367 5.894,20.709 47.472,48.721 59.249,45.847 C -22.679,-44.169 -0.112,-22.941 0,0" /></g><g
           transform="translate(322.1584,93.9861)"
           id="g28"><path
             id="path30"
             style="fill:#419cce;fill-opacity:1;fill-rule:nonzero;stroke:none"
             d="m 0,0 c 0.076,3.346 -0.346,6.755 -1.393,10.252 -2.744,9.176 -9.406,16.31 -17.238,21.521 -9.543,6.35 -22.529,4.789 -30.981,-2.325 -10.203,-8.587 -20.363,-14.912 -34.298,-15.338 -7.69,-0.234 -15.412,1.352 -22.396,4.578 -7.086,3.275 -12.579,9.215 -19.391,13.082 -5.822,3.303 -12.553,5.479 -19.183,4.567 -13.447,-1.853 -22.316,-15.316 -35.077,-19.952 2.134,0.774 8.044,-4.094 9.608,-5.469 2.916,-2.563 5.635,-5.843 7.434,-9.298 4.238,-8.136 3.662,-18.607 -0.753,-26.517 -4.771,-8.547 -12.918,-14.489 -18.919,-22.079 -5.144,-6.505 -3.794,-13.125 3.442,-17.186 5.771,-3.239 11.937,-5.621 18.06,-8.046 8.892,-3.522 17.836,-6.907 26.767,-10.328 4.37,-1.674 8.737,-3.356 13.092,-5.066 3.148,-1.237 7.886,-4.246 11.397,-3.49 3.441,0.74 4.609,3.485 5.422,6.403 2.929,10.531 5.928,21.072 8.574,31.677 2.649,10.621 5.063,21.388 9.36,31.495 2.567,6.039 5.252,7.9 11.079,3.527 3.37,-2.529 6.542,-5.32 9.804,-7.993 12.508,-10.252 28.172,-15.037 43.502,-7.914 C -8.779,-27.716 -0.333,-14.645 0,0" /></g><g
           transform="translate(92.7576,121.1268)"
           id="g32"><path
             id="path34"
             style="fill:#419cce;fill-opacity:1;fill-rule:nonzero;stroke:none"
             d="M 0,0 C -3.306,2.787 -6.629,5.532 -10.741,7.09 -20.86,10.924 -32.39,8.764 -41.08,2.537 c -9.77,-7 -14.631,-18.509 -20.858,-28.381 -2.158,-3.422 -1.773,-5.29 1.675,-7.51 5.091,-3.795 10.458,-7.178 15.818,-10.57 8.923,-5.819 17.81,-11.692 26.787,-17.427 3.057,-1.953 6.34,-3.54 9.939,-4.346 18.442,-4.135 15.976,25.245 18.981,35.4 2.286,7.728 5.957,13.754 12.996,17.484 -0.381,0.149 -0.749,0.354 -1.143,0.439 C 16.79,-11.002 10.934,-8.22 5.652,-4.508 3.685,-3.124 1.845,-1.556 0,0" /></g><g
           transform="translate(321.1018,94.9471)"
           id="g36"><path
             id="path38"
             style="fill:#77caf1;fill-opacity:1;fill-rule:nonzero;stroke:none"
             d="m 0,0 c -1.486,1.098 -2.923,2.275 -4.469,3.279 -8.711,5.656 -18.187,8.132 -28.561,7.529 -10.511,-0.612 -19.733,-4.278 -27.616,-11.266 -5.919,-5.247 -11.858,-10.201 -20.102,-11.166 -8.283,-0.97 -15.833,0.727 -22.367,6.024 -5.817,4.716 -11.212,9.998 -18.287,12.856 -10.879,4.394 -21.916,4.959 -33.082,1.329 -3.004,-0.978 -5.895,-2.316 -8.838,-3.489 0.476,-0.797 0.94,-1.602 1.429,-2.391 7.135,-11.502 1.103,-27.709 -8.205,-36.475 -4.436,-4.176 -7.08,-8.661 -10.84,-13.491 -5.095,-6.545 -3.757,-13.204 3.41,-17.289 5.716,-3.26 11.824,-5.656 17.888,-8.096 14.633,-5.886 29.334,-11.597 44.056,-17.251 2.134,-0.82 4.202,-2.293 6.712,-1.746 3.409,0.744 4.566,3.506 5.37,6.441 1.618,5.908 2.916,11.913 4.709,17.763 3.712,12.115 6.761,24.414 10.112,36.628 0.966,3.062 1.71,6.218 2.944,9.164 2.542,6.074 5.202,7.947 10.973,3.546 3.337,-2.544 6.481,-5.351 9.711,-8.041 12.156,-10.995 25.735,-15.553 41.408,-8.734 7.444,3.238 14.411,7.42 18.212,15.308 C -1.815,-13.564 0.321,-7.135 0,0" /></g><g
           transform="translate(68.9031,105.7547)"
           id="g40"><path
             id="path42"
             style="fill:#77caf1;fill-opacity:1;fill-rule:nonzero;stroke:none"
             d="m 0,0 c -7.496,-0.423 -14.39,-2.531 -20.927,-6.205 -5.18,-2.911 -9.173,-7.335 -13.87,-10.853 5.043,-3.818 10.358,-7.221 15.668,-10.633 8.837,-5.854 16.923,-13.21 25.815,-18.979 3.028,-1.965 7.368,-4.059 10.934,-4.872 6.57,-1.496 12.186,-0.302 14.128,6.246 0.856,2.889 2.504,15.611 3.316,17.736 0.83,2.169 1.281,4.519 1.988,6.734 0.35,1.097 1.598,4.344 0.728,5.397 -1.782,2.159 -7.277,6.461 -9.515,7.927 C 19.663,-1.868 10.261,0.578 0,0" /></g><g
           transform="translate(229.0051,66.9529)"
           id="g44"><path
             id="path46"
             style="fill:#419cce;fill-opacity:1;fill-rule:nonzero;stroke:none"
             d="m 0,0 c -9.853,1.104 -18.329,5.225 -25.56,11.894 -8.065,7.438 -17.179,11.595 -28.384,9.544 -2.849,-0.521 -5.768,-1.042 -8.424,-2.242 -5.993,-2.705 -4.885,-9.117 -7.268,-14.233 -1.965,-4.218 -5.025,-7.572 -8.365,-10.738 -3.923,-3.717 -7.657,-7.643 -11.013,-11.883 -5.043,-6.371 -5.111,-12.999 1.982,-16.977 5.658,-3.172 12.723,-6.623 18.725,-8.997 14.482,-5.73 27.298,-12.148 41.869,-17.651 2.111,-0.798 6.485,-2.996 8.968,-2.463 3.374,0.724 6.365,1.815 7.16,4.673 1.602,5.75 4.67,14.61 6.445,20.304 3.674,11.793 11.516,26.655 14.834,38.544 C 10.927,1.327 1.052,-0.117 0,0" /></g><g
           transform="translate(305.177,83.8983)"
           id="g48"><path
             id="path50"
             style="fill:#419cce;fill-opacity:1;fill-rule:nonzero;stroke:none"
             d="M 0,0 C -5.794,3.481 -11.97,5.196 -18.899,4.541 -24.558,4.007 -29.529,2.3 -34.2,-0.899 c -1.42,-0.972 -15.822,-14.269 -17.412,-12.536 10.73,-11.697 27.552,-15.716 42.216,-9.907 7.75,3.07 15.036,7.108 19.163,14.984 C 6.615,-5.449 3.702,-2.226 0,0" /></g><g
           transform="translate(102.9436,77.6063)"
           id="g52"><path
             id="path54"
             style="fill:#419cce;fill-opacity:1;fill-rule:nonzero;stroke:none"
             d="m 0,0 c -2.298,-4.796 -6.999,1.007 -9.008,2.774 -2.193,1.928 -4.385,3.906 -7.025,5.208 -12.672,6.252 -28.581,4.316 -38.299,-6.249 0.374,0.407 17.709,-11.57 19.451,-12.699 6.047,-3.923 12.123,-8.639 19.29,-10.245 4.393,-0.984 9.043,0.062 11.813,3.807 C -0.244,-12.626 -0.459,-5.639 0,0" /></g></g></g></g></svg>